<svg width="300" height="300" viewBox="0 0 300 300" fill="none" xmlns="http://www.w3.org/2000/svg">
<g clip-path="url(#clip0)">
<rect width="300" height="300" fill="#D8D8D8"/>
<path d="M233.269 249.406C243.836 252.929 247.915 258.098 254.905 266.262C264.707 277.709 270 290.414 270 300.225H31C31 285.634 40.1122 274.308 46.5979 266.262C52.4917 258.951 59.4414 255.324 67.9821 251.419C78.5084 246.606 84.4152 245.19 96.0835 242C98.0961 241.457 110.262 235.662 114.288 227.519C117.711 220.596 116.201 204.625 116.201 204.625C116.201 204.625 108.191 196.411 105.907 188.358C103.623 180.306 103.203 178.629 102.373 173.264C102.361 173.188 100.094 173.238 99.7867 173.188C98.8647 173.067 97.983 172.735 97.2105 172.217C95.3438 170.848 94.4885 167.653 93.7589 165.57C92.821 162.854 92.1207 160.061 91.6658 157.223C91.107 153.655 90.8361 150.047 90.8557 146.435C90.8506 143.004 90.7248 138.631 93.5878 136.176C94.9715 134.988 96.5263 135.366 98.086 135.929C97.915 135.864 97.7791 133.65 97.7791 133.449C96.4256 122.626 94.3124 106.669 97.2105 96.0272C100.109 85.3854 101.588 79.0306 110.705 72.7713C114.39 70.2415 120.478 69.4437 125.007 70.45C125.258 62.1479 141.779 55.7746 149.745 55.7746C167.356 55.7746 176.161 60.3869 185.386 67.5149C194.61 74.643 201.195 87.6362 202.996 98.9623C204.798 110.288 204.254 122.443 201.681 133.398C201.656 133.6 201.545 135.814 201.369 135.879C202.929 135.315 204.484 134.938 205.867 136.126C208.73 138.581 208.605 142.953 208.605 146.385C208.624 149.997 208.353 153.604 207.795 157.173C207.338 160.011 206.636 162.803 205.696 165.52C204.972 167.603 204.111 170.798 202.25 172.167C201.477 172.685 200.596 173.017 199.674 173.138C199.367 173.188 197.087 173.158 197.087 173.213C196.287 178.629 195.775 181.215 193.554 188.308C191.332 195.401 183.708 203.787 183.708 203.787C183.708 203.787 183.168 220.722 186.853 227.519C189.893 233.126 196.106 238.548 198.119 239.092C209.792 242.297 219.698 244.883 233.269 249.406Z" fill="#F2F2F2"/>
<path d="M0 0V300H300V0H0Z" fill="url(#paint0_linear)"/>
</g>
<defs>
<linearGradient id="paint0_linear" x1="300" y1="0" x2="0" y2="300" gradientUnits="userSpaceOnUse">
<stop stop-color="white" stop-opacity="0.2"/>
<stop offset="1" stop-color="white" stop-opacity="0"/>
</linearGradient>
<clipPath id="clip0">
<rect width="300" height="300" fill="white"/>
</clipPath>
</defs>
</svg>
