<svg width="200" height="60" viewBox="0 0 200 60" fill="none" xmlns="http://www.w3.org/2000/svg">
<path fill-rule="evenodd" clip-rule="evenodd" d="M30 60C46.5685 60 60 46.5685 60 30C60 13.4315 46.5685 0 30 0C13.4315 0 0 13.4315 0 30C0 46.5685 13.4315 60 30 60Z" fill="white"/>
<mask id="mask0" mask-type="alpha" maskUnits="userSpaceOnUse" x="9" y="13" width="42" height="36">
<path d="M30 48.55C23.35 48.55 9 35.95 9 24.75C9 18.8 13.9 13.55 20.2 13.55C24.925 13.55 27.6813 16.3062 29.0594 17.6844C29.5187 18.1437 29.7812 18.45 30 18.45C30.2188 18.45 30.4812 18.1437 30.9406 17.6844C32.3188 16.3062 35.075 13.55 39.8 13.55C46.1 13.55 51 18.8 51 24.75C51 35.95 36.65 48.55 30 48.55Z" fill="url(#paint0_linear)"/>
</mask>
<g mask="url(#mask0)">
<path d="M30 48.55C23.35 48.55 9 35.95 9 24.75C9 18.8 13.9 13.55 20.2 13.55C24.925 13.55 27.6813 16.3062 29.0594 17.6844C29.5187 18.1437 29.7812 18.45 30 18.45C30.2188 18.45 30.4812 18.1437 30.9406 17.6844C32.3188 16.3062 35.075 13.55 39.8 13.55C46.1 13.55 51 18.8 51 24.75C51 35.95 36.65 48.55 30 48.55Z" fill="url(#paint1_linear)"/>
<path d="M34.4826 28.9574C31.7439 31.3098 28.6686 33.9511 25.1286 35.5226C19.0074 38.3158 13.6399 35.6902 10.8992 32.3025C10.3712 31.1954 9.93646 30.0711 9.61683 28.9435C9 26.15 12.5073 26.7246 14.601 27.8144C18.8 30 25.45 28.95 30 18.8C30.2025 18.3483 30.4026 18.2296 30.7447 17.8822C30.8058 17.8201 30.871 17.754 30.9406 17.6844C32.3187 16.3062 35.075 13.55 39.8 13.55C46.1 13.55 51 18.8 51 24.75C51 26.879 50.4815 29.0585 49.5959 31.1925C49.5986 31.1444 49.6 31.0969 49.6 31.0501C49.6 27.6657 47.15 24.05 42.6 24.05C40.1961 24.05 37.7 26.15 34.4826 28.9574Z" fill="url(#paint2_linear)" fill-opacity="0.2" style="mix-blend-mode:lighten"/>
<g opacity="0.5">
<path d="M18.45 29.65C21.9126 29.65 26.85 26.85 28.95 23.35C29.0888 23.1187 29.2291 22.8813 29.3719 22.6395C31.3906 19.2237 33.9164 14.95 39.8 14.95C44.9445 14.95 48.6887 17.7506 50.6514 22.0178C49.4274 17.2814 45.1112 13.55 39.8 13.55C35.075 13.55 32.3187 16.3062 30.9406 17.6844C30.871 17.754 30.8058 17.8201 30.7447 17.8822C30.6696 17.9584 30.6014 18.0237 30.5385 18.0838C30.3147 18.2977 30.158 18.4474 30 18.8C25.45 28.95 18.8 30 14.601 27.8144C12.6863 26.8178 9.58947 26.252 9.54559 28.299C9.78414 27.9451 10.0664 27.6834 10.4 27.55C11.2648 27.2041 12.3952 27.7129 13.7354 28.3161C15.1071 28.9336 16.6986 29.65 18.45 29.65Z" fill="url(#paint3_linear)" style="mix-blend-mode:darken"/>
</g>
<g filter="url(#filter0_i)">
<path fill-rule="evenodd" clip-rule="evenodd" d="M10.8992 32.3025C15.0218 40.9466 24.8342 48.55 30 48.55C35.4031 48.55 45.8895 40.232 49.6319 31.1054C49.62 31.1344 49.608 31.1634 49.5959 31.1925C49.5986 31.1444 49.6 31.0969 49.6 31.0501C49.6 27.6657 47.15 24.05 42.6 24.05C40.1961 24.05 37.7 26.15 34.4826 28.9574C31.7439 31.3098 28.6686 33.9511 25.1286 35.5226C19.0074 38.3158 13.6399 35.6902 10.8992 32.3025ZM9.6168 28.9434C9.00012 26.15 12.5073 26.7246 14.601 27.8144C18.8 30 25.45 28.95 30 18.8C30.1161 18.541 30.2314 18.3915 30.3732 18.2455C30.226 18.3757 30.1077 18.45 30 18.45C29.8144 18.45 29.5973 18.2296 29.2553 17.8822C29.1941 17.8201 29.129 17.754 29.0594 17.6844C27.6813 16.3062 24.925 13.55 20.2 13.55C13.9 13.55 9 18.8 9 24.75C9 26.1352 9.2195 27.5418 9.6168 28.9434Z" fill="url(#paint4_linear)"/>
</g>
</g>
<path fill-rule="evenodd" clip-rule="evenodd" d="M178.985 19.314C179.566 18.7389 180.649 17.6673 178.816 15.9736C177.235 14.5223 175.185 13.7112 173.048 13.7112C168.392 13.7112 164.547 17.5104 164.547 22.2061V44.1804C164.547 45.5891 165.743 46.2369 167.153 46.2369H169.919L169.802 32.6647H173.86C175.27 32.6647 176.466 31.5121 176.466 30.0607V27.8761H173.86H169.802V22.2061C169.802 20.3705 170.924 18.6077 173.186 18.6077C175.448 18.6077 177.207 20.8677 177.207 20.8677L178.816 19.4866C178.863 19.435 178.921 19.3776 178.985 19.314ZM160.463 44.1804V13.9623H158.233C156.6 13.9623 155.343 14.7156 155.294 15.9711V26.5176C153.542 25.4077 151.491 24.7247 149.27 24.7247C143.332 24.7247 138.461 29.5911 138.461 35.5248C138.461 41.5011 143.332 46.3248 149.27 46.3248C151.534 46.3248 153.67 45.6418 155.379 44.4466V46.2395H157.857C159.31 46.2395 160.463 45.5891 160.463 44.1804ZM80.3619 27.8984H80.3619L80.3619 27.8984L80.3619 27.8984L80.3619 27.8984L80.3618 27.8984L80.3618 27.8984L80.3618 27.8984L80.3618 27.8984C80.1879 27.8808 80.0143 27.8632 79.8407 27.8447C78.0931 27.6983 76.6017 27.5609 75.5185 26.7542C74.3513 25.9019 73.4672 24.2906 73.9463 22.8124C74.4786 21.0369 76.321 19.6917 78.3382 19.4631C80.9561 19.17 83.7059 19.9921 85.5736 21.5949L87.5103 19.3058C87.5249 19.2886 87.5435 19.2679 87.565 19.2438L87.565 19.2438C87.9925 18.7663 89.5895 16.9825 84.5149 15.2331C82.3946 14.4725 80.0806 14.1671 77.831 14.4051C73.754 14.8608 70.2384 17.6 69.084 21.2759C68.0254 24.656 69.4268 28.5919 72.469 30.8338C74.697 32.4761 77.1419 32.7027 79.3405 32.9064L79.4071 32.9126C80.3876 32.9895 81.3681 33.0664 82.2146 33.3095C84.2903 33.8518 85.722 35.6958 85.5268 37.6111C85.3227 39.7824 82.9724 40.9818 80.8698 41.2074C77.6939 41.5665 74.3627 40.2542 72.5601 38.0129L72.1097 37.4319L69.7126 39.107C68.5113 39.9026 68.2584 40.7299 68.954 41.5889C71.0309 44.5551 75.3326 46.1826 79.3232 46.3218C80.0063 46.3457 80.7336 46.3284 81.4197 46.2669C85.4967 45.8111 90.1239 43.068 90.5972 38.087C91.0055 33.7444 87.9464 29.5371 83.4976 28.3995C82.4122 28.1061 81.3825 28.0018 80.3619 27.8984ZM103.669 46.4945C97.6664 46.4945 92.7513 41.6173 92.7513 35.5644C92.7513 29.555 97.6664 24.6343 103.669 24.6343C109.671 24.6343 114.587 29.555 114.63 35.6079C114.587 41.6173 109.671 46.4945 103.669 46.4945ZM98.0287 35.5423C98.0287 32.4168 100.54 29.9075 103.668 29.9075C106.796 29.9075 109.307 32.4168 109.307 35.5423C109.307 38.6679 106.796 41.1772 103.668 41.1772C100.54 41.1772 98.0287 38.6679 98.0287 35.5423ZM126.534 46.4529C120.98 46.4529 116.66 41.6291 116.66 35.7382V27.0198C116.66 24.5164 121.744 25.011 121.744 25.011V35.7382C121.744 38.8117 124.056 41.2876 126.534 41.2876C129.439 41.2876 131.367 38.8117 131.367 35.7382V25.011C131.367 25.011 136.495 24.5258 136.495 27.0198C136.495 30.3472 136.451 35.7382 136.451 35.7382C136.451 41.6291 132.131 46.4529 126.534 46.4529ZM149.27 41.1596C152.389 41.1596 154.909 38.641 154.909 35.5248C154.909 32.4085 152.389 29.8899 149.27 29.8899C146.151 29.8899 143.631 32.4085 143.631 35.5248C143.631 38.641 146.151 41.1596 149.27 41.1596ZM197.465 24.8854L199.973 24.9274V27.214V43.7376C199.973 45.0751 198.892 46.1968 197.465 46.1968H195.174V43.2199C193.315 44.8162 191.153 45.7653 188.558 45.7653C182.764 45.7653 178.095 41.1059 178.095 35.3679C178.095 29.63 182.764 24.9274 188.558 24.9274C191.153 24.9274 193.315 25.9197 195.174 27.4297V27.214C195.174 25.8765 196.039 24.8854 197.465 24.8854ZM193.963 35.3679C193.963 38.3448 191.499 40.7176 188.558 40.7176C185.575 40.7176 183.11 38.3448 183.11 35.3679C183.11 32.3911 185.575 29.9751 188.558 29.9751C191.499 29.9751 193.963 32.3911 193.963 35.3679Z" fill="white"/>
<defs>
<filter id="filter0_i" x="9" y="13.55" width="40.6319" height="37" filterUnits="userSpaceOnUse" color-interpolation-filters="sRGB">
<feFlood flood-opacity="0" result="BackgroundImageFix"/>
<feBlend mode="normal" in="SourceGraphic" in2="BackgroundImageFix" result="shape"/>
<feColorMatrix in="SourceAlpha" type="matrix" values="0 0 0 0 0 0 0 0 0 0 0 0 0 0 0 0 0 0 127 0" result="hardAlpha"/>
<feOffset dy="2"/>
<feGaussianBlur stdDeviation="3"/>
<feComposite in2="hardAlpha" operator="arithmetic" k2="-1" k3="1"/>
<feColorMatrix type="matrix" values="0 0 0 0 0 0 0 0 0 0 0 0 0 0 0 0 0 0 0.05 0"/>
<feBlend mode="normal" in2="shape" result="effect1_innerShadow"/>
</filter>
<linearGradient id="paint0_linear" x1="9" y1="13.55" x2="51.2649" y2="13.8729" gradientUnits="userSpaceOnUse">
<stop stop-color="#FD8041"/>
<stop offset="1" stop-color="#FF4CA1"/>
</linearGradient>
<linearGradient id="paint1_linear" x1="9" y1="13.55" x2="51.2649" y2="13.8729" gradientUnits="userSpaceOnUse">
<stop stop-color="#FD8041"/>
<stop offset="1" stop-color="#FF4CA1"/>
</linearGradient>
<linearGradient id="paint2_linear" x1="27.55" y1="31.05" x2="22.827" y2="21.7172" gradientUnits="userSpaceOnUse">
<stop stop-color="white"/>
<stop offset="1"/>
</linearGradient>
<linearGradient id="paint3_linear" x1="47.15" y1="17.05" x2="19.291" y2="36.1926" gradientUnits="userSpaceOnUse">
<stop offset="0.392265" stop-color="#F45388" stop-opacity="0"/>
<stop offset="1" stop-color="#FE6E4A"/>
</linearGradient>
<linearGradient id="paint4_linear" x1="9" y1="13.55" x2="49.8883" y2="13.8522" gradientUnits="userSpaceOnUse">
<stop stop-color="#FD8041"/>
<stop offset="1" stop-color="#FF4CA1"/>
</linearGradient>
</defs>
</svg>
