<svg width="200" height="47" viewBox="0 0 200 47" fill="none" xmlns="http://www.w3.org/2000/svg">
<g clip-path="url(#clip0)">
<rect width="200" height="47" fill="white"/>
<path fill-rule="evenodd" clip-rule="evenodd" d="M177.891 12.8124C178.481 12.2281 179.581 11.1396 177.719 9.41913C176.113 7.94476 174.03 7.12085 171.86 7.12085C167.13 7.12085 163.224 10.9802 163.224 15.7502V38.0724C163.224 39.5034 164.439 40.1615 165.871 40.1615H168.682L168.562 26.3744H172.685C174.117 26.3744 175.332 25.2036 175.332 23.7292V21.51H172.685H168.562V15.7502C168.562 13.8856 169.703 12.0949 172 12.0949C174.298 12.0949 176.085 14.3907 176.085 14.3907L177.719 12.9877C177.767 12.9355 177.826 12.8772 177.891 12.8129L177.891 12.8125L177.891 12.8124ZM159.076 38.0724V7.37593H156.811C155.152 7.37593 153.875 8.14117 153.825 9.41658V20.13C152.045 19.0025 149.962 18.3087 147.705 18.3087C141.673 18.3087 136.726 23.2522 136.726 29.2798C136.726 35.3507 141.673 40.2508 147.705 40.2508C150.006 40.2508 152.175 39.557 153.911 38.3428V40.1641H156.428C157.904 40.1641 159.076 39.5034 159.076 38.0724ZM77.7905 21.5724H77.7905L77.7905 21.5724L77.7905 21.5724L77.7904 21.5724L77.7904 21.5724L77.7904 21.5724L77.7904 21.5724L77.7903 21.5724C77.6165 21.5548 77.4428 21.5372 77.2693 21.5187C75.5217 21.3723 74.0303 21.2349 72.9471 20.4282C71.7799 19.5759 70.8958 17.9647 71.3749 16.4864C71.9072 14.711 73.7496 13.3657 75.7668 13.1371C78.3846 12.844 81.1345 13.6661 83.0022 15.269L84.9389 12.9798C84.9535 12.9626 84.9721 12.9419 84.9936 12.9179L84.9936 12.9178C85.4211 12.4403 87.0181 10.6565 81.9435 8.90707C79.8232 8.1465 77.5092 7.84116 75.2596 8.07912C71.1826 8.53486 67.667 11.274 66.5126 14.9499C65.454 18.3301 66.8554 22.2659 69.8976 24.5078C72.1255 26.1501 74.5705 26.3767 76.7691 26.5804L76.8357 26.5866C77.8162 26.6635 78.7967 26.7404 79.6432 26.9835C81.7189 27.5258 83.1506 29.3698 82.9554 31.2851C82.7513 33.4564 80.401 34.6558 78.2984 34.8814C75.1225 35.2405 71.7913 33.9282 69.9887 31.6869L69.5383 31.1059L67.1412 32.781C65.9399 33.5767 65.687 34.4039 66.3826 35.2629C68.4595 38.2291 72.7612 39.8566 76.7518 39.9959C77.4349 40.0197 78.1622 40.0024 78.8483 39.9409C82.9253 39.4851 87.5525 36.742 88.0258 31.761C88.434 27.4184 85.375 23.2111 80.9262 22.0735C79.8408 21.7801 78.8111 21.6758 77.7905 21.5724ZM101.383 40.4232C95.285 40.4232 90.2921 35.4688 90.2921 29.32C90.2921 23.2155 95.285 18.2169 101.383 18.2169C107.48 18.2169 112.473 23.2155 112.517 29.3643C112.473 35.4688 107.48 40.4232 101.383 40.4232ZM95.6531 29.2976C95.6531 26.1226 98.2041 23.5736 101.382 23.5736C104.559 23.5736 107.11 26.1226 107.11 29.2976C107.11 32.4727 104.559 35.0216 101.382 35.0216C98.2041 35.0216 95.6531 32.4727 95.6531 29.2976ZM124.61 40.3809C118.968 40.3809 114.58 35.4808 114.58 29.4966V20.6402C114.58 18.0971 119.744 18.5995 119.744 18.5995V29.4966C119.744 32.6188 122.093 35.1339 124.61 35.1339C127.561 35.1339 129.519 32.6188 129.519 29.4966V18.5995C129.519 18.5995 134.729 18.1066 134.729 20.6402C134.729 24.0202 134.683 29.4966 134.683 29.4966C134.683 35.4808 130.295 40.3809 124.61 40.3809ZM147.705 35.0038C150.874 35.0038 153.434 32.4453 153.434 29.2798C153.434 26.1142 150.874 23.5557 147.705 23.5557C144.537 23.5557 141.977 26.1142 141.977 29.2798C141.977 32.4453 144.537 35.0038 147.705 35.0038ZM196.664 18.472L199.212 18.5146V20.8374V37.6227C199.212 38.9812 198.113 40.1207 196.664 40.1207H194.336V37.0967C192.447 38.7183 190.251 39.6825 187.616 39.6825C181.73 39.6825 176.987 34.9493 176.987 29.1205C176.987 23.2916 181.73 18.5146 187.616 18.5146C190.251 18.5146 192.447 19.5226 194.336 21.0565V20.8374C194.336 19.4788 195.215 18.472 196.664 18.472ZM193.106 29.1205C193.106 32.1444 190.603 34.5548 187.616 34.5548C184.585 34.5548 182.082 32.1444 182.082 29.1205C182.082 26.0965 184.585 23.6422 187.616 23.6422C190.603 23.6422 193.106 26.0965 193.106 29.1205Z" fill="#FE6771"/>
<mask id="mask0" mask-type="alpha" maskUnits="userSpaceOnUse" x="0" y="0" width="56" height="47">
<path d="M28 46.7334C19.1333 46.7334 0 29.9333 0 15C0 7.06672 6.53333 0.0666504 14.9333 0.0666504C21.2333 0.0666504 24.9083 3.74165 26.7458 5.57915C27.3583 6.19165 27.7083 6.59998 28 6.59998C28.2917 6.59998 28.6417 6.19165 29.2542 5.57915C31.0917 3.74165 34.7667 0.0666504 41.0667 0.0666504C49.4667 0.0666504 56 7.06672 56 15C56 29.9333 36.8667 46.7334 28 46.7334Z" fill="url(#paint0_linear)"/>
</mask>
<g mask="url(#mask0)">
<path d="M28 46.7334C19.1333 46.7334 0 29.9333 0 15C0 7.06672 6.53333 0.0666504 14.9333 0.0666504C21.2333 0.0666504 24.9083 3.74165 26.7458 5.57915C27.3583 6.19165 27.7083 6.59998 28 6.59998C28.2917 6.59998 28.6417 6.19165 29.2542 5.57915C31.0917 3.74165 34.7667 0.0666504 41.0667 0.0666504C49.4667 0.0666504 56 7.06672 56 15C56 29.9333 36.8667 46.7334 28 46.7334Z" fill="url(#paint1_linear)"/>
<path d="M33.9769 20.6098C30.3252 23.7463 26.2249 27.2682 21.5048 29.3635C13.3432 33.0877 6.18652 29.587 2.5323 25.0701C1.82823 23.5938 1.24863 22.0948 0.822446 20.5914C6.07967e-06 16.8666 4.67635 17.6328 7.46803 19.0859C13.0667 22 21.9333 20.6 28 7.06665C28.27 6.46442 28.5369 6.30608 28.993 5.84295C29.0745 5.76018 29.1613 5.67201 29.2542 5.57915C31.0917 3.74165 34.7667 0.0666504 41.0667 0.0666504C49.4667 0.0666504 56 7.06672 56 15C56 17.8386 55.3087 20.7447 54.1279 23.59C54.1315 23.5259 54.1333 23.4625 54.1333 23.4001C54.1333 18.8877 50.8667 14.0666 44.8 14.0666C41.5948 14.0666 38.2667 16.8666 33.9769 20.6098Z" fill="url(#paint2_linear)" fill-opacity="0.2" style="mix-blend-mode:lighten"/>
<g opacity="0.5">
<path d="M12.6 21.5333C17.2168 21.5333 23.8 17.8 26.6 13.1333C26.785 12.8249 26.9721 12.5083 27.1626 12.186C29.8542 7.63163 33.2218 1.93332 41.0667 1.93332C47.926 1.93332 52.9182 5.66745 55.5352 11.357C53.9032 5.04182 48.1483 0.0666504 41.0667 0.0666504C34.7667 0.0666504 31.0916 3.74165 29.2541 5.57915C29.1613 5.67201 29.0745 5.76018 28.9929 5.84295C28.8929 5.94458 28.8019 6.03154 28.718 6.11173C28.4196 6.39696 28.2107 6.59658 28 7.06665C21.9333 20.6 13.0667 22 7.46802 19.0859C4.91506 17.757 0.785963 17.0027 0.727463 19.732C1.04552 19.2602 1.42181 18.9113 1.86667 18.7333C3.01976 18.2721 4.52694 18.9505 6.31382 19.7549C8.14278 20.5781 10.2648 21.5333 12.6 21.5333Z" fill="url(#paint3_linear)" style="mix-blend-mode:darken"/>
</g>
<g filter="url(#filter0_i)">
<path fill-rule="evenodd" clip-rule="evenodd" d="M2.53229 25.0701C8.02908 36.5955 21.1122 46.7334 28 46.7334C35.2042 46.7334 49.1859 35.6427 54.1758 23.4738C54.16 23.5126 54.144 23.5513 54.1279 23.59C54.1315 23.5259 54.1333 23.4625 54.1333 23.4001C54.1333 18.8877 50.8667 14.0666 44.8 14.0666C41.5948 14.0666 38.2667 16.8666 33.9769 20.6098C30.3252 23.7463 26.2249 27.2682 21.5048 29.3635C13.3432 33.0877 6.18652 29.587 2.53229 25.0701ZM0.822398 20.5912C0.000160381 16.8667 4.67639 17.6328 7.46803 19.0859C13.0667 22 21.9333 20.6 28 7.06665C28.1548 6.72133 28.3086 6.52195 28.4976 6.32737C28.3014 6.50099 28.1436 6.59998 28 6.59998C27.7526 6.59998 27.4631 6.30608 27.007 5.84295C26.9255 5.76018 26.8387 5.67201 26.7458 5.57915C24.9083 3.74165 21.2333 0.0666504 14.9333 0.0666504C6.53333 0.0666504 0 7.06672 0 15C0 16.847 0.292673 18.7225 0.822398 20.5912Z" fill="url(#paint4_linear)"/>
</g>
</g>
</g>
<defs>
<filter id="filter0_i" x="0" y="0.0666504" width="54.1758" height="48.6667" filterUnits="userSpaceOnUse" color-interpolation-filters="sRGB">
<feFlood flood-opacity="0" result="BackgroundImageFix"/>
<feBlend mode="normal" in="SourceGraphic" in2="BackgroundImageFix" result="shape"/>
<feColorMatrix in="SourceAlpha" type="matrix" values="0 0 0 0 0 0 0 0 0 0 0 0 0 0 0 0 0 0 127 0" result="hardAlpha"/>
<feOffset dy="2"/>
<feGaussianBlur stdDeviation="3"/>
<feComposite in2="hardAlpha" operator="arithmetic" k2="-1" k3="1"/>
<feColorMatrix type="matrix" values="0 0 0 0 0 0 0 0 0 0 0 0 0 0 0 0 0 0 0.05 0"/>
<feBlend mode="normal" in2="shape" result="effect1_innerShadow"/>
</filter>
<linearGradient id="paint0_linear" x1="0" y1="0.0666504" x2="56.3532" y2="0.497144" gradientUnits="userSpaceOnUse">
<stop stop-color="#FD8041"/>
<stop offset="1" stop-color="#FF4CA1"/>
</linearGradient>
<linearGradient id="paint1_linear" x1="0" y1="0.0666504" x2="56.3532" y2="0.497144" gradientUnits="userSpaceOnUse">
<stop stop-color="#FD8041"/>
<stop offset="1" stop-color="#FF4CA1"/>
</linearGradient>
<linearGradient id="paint2_linear" x1="24.7333" y1="23.4" x2="18.4361" y2="10.9563" gradientUnits="userSpaceOnUse">
<stop stop-color="white"/>
<stop offset="1"/>
</linearGradient>
<linearGradient id="paint3_linear" x1="50.8667" y1="4.73332" x2="13.7214" y2="30.2568" gradientUnits="userSpaceOnUse">
<stop offset="0.392265" stop-color="#F45388" stop-opacity="0"/>
<stop offset="1" stop-color="#FE6E4A"/>
</linearGradient>
<linearGradient id="paint4_linear" x1="0" y1="0.0666504" x2="54.5177" y2="0.469556" gradientUnits="userSpaceOnUse">
<stop stop-color="#FD8041"/>
<stop offset="1" stop-color="#FF4CA1"/>
</linearGradient>
<clipPath id="clip0">
<rect width="200" height="47" fill="white"/>
</clipPath>
</defs>
</svg>
