<svg width="300" height="300" viewBox="0 0 300 300" fill="none" xmlns="http://www.w3.org/2000/svg">
<g clip-path="url(#clip0)">
<rect width="300" height="300" fill="#D8D8D8"/>
<path d="M52 300.281C52 300.281 52.1601 284.98 54.481 272.131C56.802 259.283 75.2095 239.275 108.743 231.992C120.724 229.39 124.596 209.942 124.59 201.98C122.855 200.939 119.548 198.378 116.426 195.497C113.517 192.811 109.944 188.294 108.263 186.373C107.223 187.494 104.565 191.655 106.102 195.497C107.307 198.508 110.705 198.913 113.659 198.793C114.179 198.772 114.452 199.575 113.982 199.799C112.723 200.398 110.835 200.88 107.543 200.539C100.58 199.819 97.6987 190.935 96.4982 185.893C95.4286 181.401 94.7374 171.327 95.2977 167.165L94.3373 165.725C93.697 167.966 92.9551 176.924 93.3769 183.252C93.8571 190.455 95.7779 196.697 101.3 202.46C104.821 206.133 112.341 209.042 118.101 210.714C118.653 210.874 118.542 211.641 117.969 211.582C112.715 211.042 106.145 209.523 100.58 206.301C91.4561 201.019 89.7754 189.975 89.0551 186.133C88.4789 183.06 87.8546 164.284 87.8546 154.44L89.0551 151.799C87.3744 149.878 80.8918 138.354 81.372 127.309C81.7561 118.473 90.7358 107.381 98.4189 99.9379C104.181 94.3556 102.239 87.933 101.54 85.2919C99.8115 78.7613 100.212 71.2543 103.701 67.7648C109.704 61.7623 133.713 56 142.837 56C171.346 56 192.678 81.3315 204.221 95.0398L204.302 95.136C213.522 106.084 214.226 117.305 213.426 121.547C217.748 121.787 221.589 125.868 222.069 134.032C222.454 140.562 218.548 143.956 216.547 144.836C218.228 145.797 218.228 147.477 218.228 149.878C218.228 156.121 215.107 160.923 214.146 164.524C213.378 167.405 214.226 173.648 214.866 176.529C215.827 180.611 218.948 182.772 221.829 181.091C223.591 180.064 223.221 178.503 222.627 177.182C222.446 176.779 222.792 176.441 223.136 176.718C223.954 177.377 224.787 178.352 224.951 179.17C225.497 181.904 224.47 183.252 222.069 185.653C220.134 187.589 217.187 189.975 215.347 190.935C215.731 192.472 216.707 193.656 217.267 194.296C218.014 195.043 219.629 195.644 220.876 195.875C221.265 195.947 221.456 196.403 221.141 196.643C220.128 197.415 218.41 198.138 216.547 198.138C214.146 198.138 212.305 196.457 211.265 194.777C211.585 195.737 212.369 198.426 212.946 201.499C213.666 205.341 211.025 206.782 209.824 207.502C208.624 208.222 208.144 208.702 205.743 213.024C203.342 217.346 200.701 220.227 195.419 220.947C192.783 221.307 189.887 220.377 187.614 219.278C187.106 219.032 187.376 218.491 187.914 218.662C190.663 219.534 193.287 219.92 195.899 219.267C200.701 218.066 203.262 212.784 202.862 210.383C199.98 210.303 194.218 209.951 191.337 209.182C188.456 208.414 183.894 202.3 182.693 199.819C182.693 199.819 180.582 201.313 179.092 202.22C177.659 203.091 175.25 204.381 175.25 204.381C176.306 213.508 179.405 227.9 187.975 230.791C227.832 244.237 238.396 255.041 242.958 272.131C245.805 282.797 248 300.281 248 300.281H52Z" fill="#F2F2F2"/>
<path d="M0 0V300H300V0H0Z" fill="url(#paint0_linear)"/>
</g>
<defs>
<linearGradient id="paint0_linear" x1="300" y1="0" x2="0" y2="300" gradientUnits="userSpaceOnUse">
<stop stop-color="white" stop-opacity="0.2"/>
<stop offset="1" stop-color="white" stop-opacity="0"/>
</linearGradient>
<clipPath id="clip0">
<rect width="300" height="300" fill="white"/>
</clipPath>
</defs>
</svg>
